<?xml version="1.0" encoding="utf-8"?>
<!-- Generator: Adobe Illustrator 24.2.1, SVG Export Plug-In . SVG Version: 6.00 Build 0)  -->
<svg version="1.1" id="Layer_1" xmlns="http://www.w3.org/2000/svg" xmlns:xlink="http://www.w3.org/1999/xlink" x="0px" y="0px"
	 viewBox="0 0 1000 1000" style="enable-background:new 0 0 1000 1000;" xml:space="preserve">
<style type="text/css">
	.st0{fill:#1D1D1B;}
</style>
<g>
	<path class="st0" d="M489.9,603.3L389.8,703.4c-25.7,25.7-67.5,25.7-93.2,0c-25.7-25.7-25.7-67.5,0-93.2l100.1-100.1l20.8-20.8
		c18.3-18.3,44.9-23.6,67.9-15.8c9.3,3.1,18,8.4,25.4,15.8c7.4,7.4,12.6,16.1,15.8,25.4c16.1,3,33.5-1.7,45.9-14.2l14.3-14.3
		c-6.4-16-16.1-30.9-29-43.8c-12.9-12.9-27.9-22.6-43.8-29c-38.4-15.5-82.7-12.3-118.7,9.6c-8.8,5.4-17,11.8-24.6,19.4L249.7,563.3
		c-51.6,51.6-51.6,135.5,0,187.1c51.6,51.6,135.5,51.6,187.1,0l120.9-120.9c7.6-7.6,14-15.8,19.4-24.6
		C548.6,613.1,518.1,612.6,489.9,603.3z"/>
	<path class="st0" d="M750.3,249.7c-51.6-51.6-135.5-51.6-187.1,0L442.4,370.5c-7.6,7.6-14,15.8-19.4,24.6
		c28.4-8.2,58.9-7.7,87.1,1.5l100.1-100.1c25.7-25.7,67.5-25.7,93.2,0c25.7,25.7,25.7,67.5,0,93.2L603.3,489.9l-20.8,20.8
		c-18.3,18.3-44.9,23.6-67.9,15.8c-9.3-3.1-18-8.4-25.4-15.8c-7.4-7.4-12.6-16.1-15.8-25.4c-16.1-3-33.5,1.7-45.9,14.2l-14.3,14.3
		c6.4,16,16.1,30.9,29,43.8c12.9,12.9,27.9,22.6,43.8,29c38.4,15.5,82.7,12.3,118.6-9.6c8.8-5.4,17-11.8,24.6-19.4l120.9-120.9
		C801.9,385.2,801.9,301.2,750.3,249.7z"/>
</g>
</svg>
